<?xml version="1.0" encoding="UTF-8"?>
<svg width="145px" height="33px" viewBox="0 0 145 33" version="1.1" xmlns="http://www.w3.org/2000/svg" xmlns:xlink="http://www.w3.org/1999/xlink">
    <!-- Generator: Sketch 54.1 (76490) - https://sketchapp.com -->
    <title>ERP Logo Color</title>
    <desc>Created with Sketch.</desc>
    <g id="Page-1" stroke="none" stroke-width="1" fill="none" fill-rule="evenodd">
        <g id="Home-Page-Design---WeDevs-U3" transform="translate(-511.000000, -1511.000000)" fill-rule="nonzero">
            <g id="ERP-Logo-Color" transform="translate(511.000000, 1511.000000)">
                <g id="Text" transform="translate(40.643939, 6.600000)">
                    <path d="M28.0149687,0.394339623 C28.3090997,0.394339623 28.442063,0.524471698 28.3896835,0.812339623 L25.0575421,17.6190943 C24.7916155,19.0032264 24.4169007,19.8628868 23.9656312,20.2020189 C23.5143618,20.5411509 22.551385,20.7225472 21.0847593,20.7225472 C19.4327907,20.7225472 18.365055,20.5648113 17.9097563,20.2256792 C17.4544577,19.8865472 17.0555677,19.0426604 16.7009989,17.6151509 L14.3278051,7.75666038 L11.9102902,17.6151509 C11.0843059,20.5372075 11.0561016,20.5648113 7.5627925,20.7225472 C6.09616678,20.7225472 5.10901486,20.5411509 4.65774541,20.2020189 C4.20647596,19.8628868 3.8519071,19.019 3.5658345,17.6190943 L0.257868258,0.812339623 C0.205488768,0.524471698 0.310247748,0.394339623 0.604378729,0.394339623 L4.15006728,0.394339623 C4.33541009,0.394339623 4.46837341,0.524471698 4.52478209,0.812339623 L7.37744969,15.7656981 C7.51041301,16.4163585 7.64337633,16.5543774 7.9898868,16.5543774 C8.4169811,16.5543774 8.49756494,16.4242453 8.68290775,15.7656981 L12.1762168,1.51820755 C12.2250357,1.25849398 12.4674506,1.07756723 12.7362744,1.10020755 L15.883073,1.10020755 C16.1457151,1.07898024 16.3793966,1.26263785 16.4149263,1.51820755 L19.9364397,15.7656981 C20.1217825,16.4163585 20.1781912,16.5543774 20.6052855,16.5543774 C20.951796,16.5543774 21.0847593,16.3966415 21.2177226,15.7656981 L24.0703902,0.812339623 C24.150974,0.473207547 24.2315579,0.394339623 24.4733093,0.394339623 L28.0149687,0.394339623 Z" id="Shape" fill="#008CD2"></path>
                    <path d="M44.4943621,1.672 C45.6426816,2.6105283 46.2027393,4.36139623 46.2027393,6.94432075 C46.2027393,9.63371698 45.775645,11.1440377 44.4701869,12.0707358 C43.1647289,12.997434 41.484556,13.2537547 38.3901369,13.2537547 L35.0821706,13.2537547 L35.0821706,20.1428679 C35.0821706,20.482 35.0015868,20.5608679 34.6792515,20.5608679 L31.2947306,20.5608679 C30.9764245,20.5608679 30.8918115,20.482 30.8918115,20.1428679 L30.8918115,0.855716981 C30.8918115,0.567849057 30.9723953,0.516584906 31.2947306,0.488981132 C33.4543773,0.307584906 35.7993667,0.201113208 38.3861077,0.201113208 C41.3475635,0.236603774 43.3742468,0.709811321 44.4943621,1.672 Z M35.0821706,3.81326415 L35.0821706,10.1226981 L37.9630426,10.1226981 C39.5747192,10.1226981 40.6827469,9.94130189 41.1863958,9.57456604 C41.6900448,9.20783019 41.9600006,8.34816981 41.9600006,7.04290566 C41.9600006,5.73764151 41.6940739,4.87798113 41.1541623,4.45998113 C40.6142506,4.04198113 39.5424857,3.80932075 37.9549842,3.80932075 L35.0821706,3.81326415 Z" id="Shape" fill="#008CD2"></path>
                    <path d="M67.0779806,0.394339623 C67.1890962,0.378147873 67.3014781,0.414450237 67.3809149,0.49219548 C67.4603516,0.569940722 67.4974438,0.679929658 67.4808997,0.788679245 L67.4808997,3.58060377 C67.4974438,3.68935336 67.4603516,3.7993423 67.3809149,3.87708754 C67.3014781,3.95483278 67.1890962,3.99113515 67.0779806,3.9749434 L57.5046215,3.9749434 L57.5046215,8.90813208 L66.2519963,8.90813208 C66.5461273,8.90813208 66.6790906,9.03826415 66.6790906,9.3024717 L66.6790906,11.9642642 C66.6790906,12.2245283 66.5461273,12.3586038 66.2519963,12.3586038 L57.5046215,12.3586038 L57.5046215,17.0315283 L67.0779806,17.0315283 C67.1890962,17.0153366 67.3014781,17.0516389 67.3809149,17.1293842 C67.4603516,17.2071294 67.4974438,17.3171183 67.4808997,17.4258679 L67.4808997,20.2177925 C67.4974438,20.326542 67.4603516,20.436531 67.3809149,20.5142762 C67.3014781,20.5920215 67.1890962,20.6283238 67.0779806,20.6121321 L53.7212107,20.6121321 C53.455284,20.6121321 53.3182915,20.482 53.3182915,20.1941321 L53.3182915,0.788679245 C53.3017475,0.679929658 53.3388397,0.569940722 53.4182764,0.49219548 C53.4977131,0.414450237 53.610095,0.378147873 53.7212107,0.394339623 L67.0779806,0.394339623 Z" id="Shape" fill="#2A327F"></path>
                    <path d="M84.210103,1.672 C85.3584225,2.6105283 85.9184802,4.36139623 85.9184802,6.94432075 C85.9184802,8.91601887 85.6243492,10.3356415 85.0119121,11.2505094 C84.399475,12.1653774 83.3599435,12.7371698 81.8369091,13.0250377 L86.3697496,20.0718868 C86.5832968,20.3597547 86.4503335,20.5924151 86.0514435,20.5924151 L82.6790102,20.5924151 C82.2356196,20.6354252 81.8110238,20.4064781 81.6112744,20.0166792 L77.2396016,13.2853019 L74.785824,13.2853019 L74.785824,20.1744151 C74.785824,20.5135472 74.7052401,20.5924151 74.3829048,20.5924151 L70.9983839,20.5924151 C70.6800778,20.5924151 70.5954648,20.5135472 70.5954648,20.1744151 L70.5954648,0.887264151 C70.5954648,0.599396226 70.6760486,0.548132075 70.9983839,0.520528302 C73.1580306,0.339132075 75.5030201,0.232660377 78.089761,0.232660377 C81.0512168,0.236603774 83.0779001,0.709811321 84.210103,1.672 Z M74.7979115,3.81326415 L74.7979115,10.1226981 L77.6787835,10.1226981 C79.2904601,10.1226981 80.3984878,9.94130189 80.9021367,9.57456604 C81.4057857,9.20783019 81.6757415,8.34816981 81.6757415,7.04290566 C81.6757415,5.73764151 81.4098148,4.87798113 80.8699032,4.45998113 C80.3299915,4.04198113 79.2582266,3.80932075 77.6707251,3.80932075 L74.7979115,3.81326415 Z" id="Shape" fill="#2A327F"></path>
                    <path d="M102.647683,1.672 C103.796003,2.6105283 104.356061,4.36139623 104.356061,6.94432075 C104.356061,9.63371698 103.928966,11.1440377 102.623508,12.0707358 C101.31805,12.997434 99.6378773,13.2537547 96.5434582,13.2537547 L93.235492,13.2537547 L93.235492,20.1428679 C93.235492,20.482 93.1549082,20.5608679 92.8325728,20.5608679 L89.4480519,20.5608679 C89.1297458,20.5608679 89.0451328,20.482 89.0451328,20.1428679 L89.0451328,0.855716981 C89.0451328,0.567849057 89.1257166,0.516584906 89.4480519,0.488981132 C91.6076986,0.307584906 93.9526881,0.201113208 96.539429,0.201113208 C99.5210308,0.236603774 101.535627,0.709811321 102.647683,1.672 Z M93.235492,3.81326415 L93.235492,10.1226981 L96.1163639,10.1226981 C97.7280405,10.1226981 98.8360682,9.94130189 99.3397172,9.57456604 C99.8433661,9.20783019 100.113322,8.34816981 100.113322,7.04290566 C100.113322,5.73764151 99.8473953,4.87798113 99.3074836,4.45998113 C98.767572,4.04198113 97.695807,3.80932075 96.1083055,3.80932075 L93.235492,3.81326415 Z" id="Shape" fill="#2A327F"></path>
                </g>
                <g id="Icon">
                    <path d="M24.9409645,4.08325301 C24.4431962,3.95914014 23.931092,3.90032269 23.4178215,3.90831325 C21.0386641,3.90831325 18.6353936,4.67168675 16.4411031,5.52650602 C14.6164047,6.22217026 12.8662686,7.09587901 11.216602,8.1346988 C10.1516075,8.81855422 7.81263858,10.0113253 7.68805432,11.4307229 C7.59562084,12.4724096 8.87361419,13.2318072 9.77383592,13.3431325 C10.6017184,13.446506 11.2527716,13.033012 11.9440133,12.5956627 C12.9004989,11.9913253 13.7725887,11.4744578 14.6125277,11.0053012 C17.8276053,9.24795181 23.3414634,6.95783133 26.9101996,5.73722892 C26.3064578,5.1273138 25.647267,4.57365433 24.9409645,4.08325301 L24.9409645,4.08325301 Z" id="Shape" fill="#C3C4C6"></path>
                    <path d="M6.86419069,12.1583133 C6.86419069,12.1583133 6.86419069,12.1344578 6.86419069,12.1225301 C6.86419069,12.1106024 6.86419069,12.1463855 6.86419069,12.1583133 Z" id="Shape" fill="#A9AAAD"></path>
                    <path d="M25.2222838,24.3484337 L24.4747783,24.6545783 C23.5906319,25.0203614 22.6743348,25.4020482 21.7459812,25.7161446 C20.7169253,26.054399 19.6618818,26.3096905 18.5911863,26.4795181 C18.2300873,26.5410416 17.8644692,26.5729573 17.4980599,26.5749398 C15.6212583,26.5749398 14.7572062,25.616747 14.3633592,24.7340964 C13.9775843,23.867457 13.992255,22.8776072 14.4035477,22.0225301 C15.9508038,18.8418072 26.7012195,14.9414458 27.922949,14.5080723 C29.2612251,14.0309639 31.4113082,13.406747 32.9264135,12.9693976 C33.0952051,10.3810843 30.4789357,7.35144578 29.10449,6.75108434 C26.6007483,7.39518072 18.9810144,10.2936145 14.6808481,12.6592771 C13.8529656,13.116506 12.9929324,13.6254217 12.0485033,14.2218072 C11.401469,14.6193976 10.6780765,15.0885542 9.76981707,15.0885542 C9.65698301,15.0888085 9.54424075,15.0821694 9.43223392,15.0686747 C8.29157163,14.9377079 7.30811155,14.2148141 6.85213415,13.1721687 C6.11668514,11.3114458 7.25401885,10.1544578 8.10601441,9.30759036 L8.3953714,9.01337349 L8.41546563,8.99349398 C11.0156596,6.69939759 15.4524667,3.49879518 24.0447616,1.97204819 C17.7820559,-1.09880372 10.2407005,0.0900994523 5.25296023,4.93459683 C0.26521997,9.77909421 -1.07503966,17.2167351 1.91325652,23.4679588 C4.9015527,29.7191825 11.563039,33.4130279 18.5125706,32.6724063 C25.4621021,31.9317847 31.1755714,26.9191223 32.7495843,20.1816867 C30.3799371,21.8039519 27.8594489,23.1991714 25.2222838,24.3484337 Z" id="Shape" fill="#00A0E3"></path>
                    <path d="M31.1862528,15.5418072 C28.1240801,16.3218593 25.1298711,17.3429458 22.2322616,18.5953012 C20.7552943,19.2252714 19.3411876,19.9906594 18.0084534,20.8814458 C17.2890798,21.3784337 15.5449002,22.5036145 15.4886364,23.4777108 C15.4122783,24.8215663 17.3011364,25.4855422 18.4063193,25.243012 C20.7010809,24.7340964 22.5819013,23.4936145 24.5792683,22.4598795 C26.7994099,21.3605875 28.9244924,20.0826733 30.9330654,18.6390361 C31.1064496,17.7614499 31.1939291,16.8693734 31.1942905,15.9751807 C31.1983093,15.8320482 31.1902716,15.6889157 31.1862528,15.5418072 Z" id="Shape" fill="#C3C4C6"></path>
                </g>
            </g>
        </g>
    </g>
</svg>