<?xml version="1.0" encoding="UTF-8"?>
<svg width="155px" height="46px" viewBox="0 0 155 46" version="1.1" xmlns="http://www.w3.org/2000/svg" xmlns:xlink="http://www.w3.org/1999/xlink">
    <!-- Generator: Sketch 54.1 (76490) - https://sketchapp.com -->
    <title>Project Manager Logo Color</title>
    <desc>Created with Sketch.</desc>
    <g id="Page-1" stroke="none" stroke-width="1" fill="none" fill-rule="evenodd">
        <g id="Home-Page-Design---WeDevs-U3" transform="translate(-1260.000000, -1168.000000)" fill-rule="nonzero">
            <g id="Project-Manager-Logo-Color" transform="translate(1260.000000, 1168.000000)">
                <g id="Icon">
                    <path d="M36.756878,4.69857143 C34.8895386,3.16337881 32.7925073,1.94575757 30.5463716,1.0925 L19.0894737,17.5210714 L19.0894737,19.4514286 L19.0894737,19.4514286 L19.0894737,23.3778571 L19.0894737,42.0735714 C19.0805474,44.0723985 20.6535246,45.702646 22.6084928,45.7207143 L22.6808014,45.7207143 C24.6357697,45.702646 26.2087468,44.0723985 26.1998206,42.0735714 L26.1998206,19.7142857 L27.0996611,18.4246429 L32.7236643,10.4075 C36.2419292,13.4246485 38.2832765,17.8718772 38.3049441,22.5667385 C38.3266117,27.2615998 36.3264039,31.7283261 32.8361443,34.7792857 C31.8711787,35.584708 31.4063697,36.8597998 31.6203726,38.1144636 C31.8343754,39.3691274 32.693885,40.4081011 33.8685381,40.8320422 C35.0431913,41.2559833 36.3501778,40.9989143 37.2871411,40.1596429 C42.4036097,35.7064418 45.3051966,29.1480115 45.1979121,22.2789998 C45.0906277,15.4099881 41.9857052,8.94962173 36.7327751,4.66571429 L36.756878,4.69857143 Z" id="_Path_" fill="#6F56A3"></path>
                    <path d="M13.1521332,34.2042857 C9.63044089,31.1408071 7.61655632,26.6400345 7.65221912,21.9126862 C7.68788193,17.185338 9.76942993,12.7168609 13.3369219,9.70928571 L17.4986842,15.8125 L21.9898525,9.74214286 L19.7964912,6.45642857 L15.5624203,0.394285714 C8.01135239,3.19025119 2.49084667,9.88981882 1.07769328,17.9726405 C-0.335460113,26.0554621 2.57309416,34.2954883 8.70917065,39.5928571 C10.1320187,40.8453872 12.272823,40.7067654 13.5297448,39.2807143 L13.5297448,39.2807143 C14.153309,38.5632363 14.465228,37.6176563 14.3940382,36.6606156 C14.3228485,35.703575 13.8746514,34.8170983 13.1521332,34.2042857 Z" id="_Path_2" fill="#AEAEAF"></path>
                </g>
                <g id="Text" transform="translate(52.840909, 4.717949)">
                    <path d="M6.73284717,33.5780342 L3.86113099,23.340928 L3.77264674,23.340928 C3.90671379,25.0837607 3.97374732,26.441107 3.97374732,27.412967 L3.97374732,33.5861783 L0.611345741,33.5861783 L0.611345741,19.3666178 L5.63081603,19.3666178 L8.55884037,29.4571306 L8.6392806,29.4571306 L11.5109968,19.3666178 L16.5706872,19.3666178 L16.5706872,33.5861783 L13.0876253,33.5861783 L13.0876253,27.3559585 C13.0876253,27.0301954 13.0876253,26.6691412 13.0876253,26.2727961 C13.0876253,25.876451 13.1305267,24.9073057 13.2163296,23.3653602 L13.1278454,23.3653602 L10.2963493,33.5861783 L6.73284717,33.5780342 Z" id="Shape" fill="#AEAEAF"></path>
                    <path d="M28.2506084,33.5780342 L27.5588225,30.9149206 L22.9978615,30.9149206 L22.2899875,33.5780342 L18.1231836,33.5780342 L22.7082767,19.3014652 L27.7679671,19.3014652 L32.4093683,33.5780342 L28.2506084,33.5780342 Z M26.7705082,27.7631624 L26.1672065,25.425812 C26.0277768,24.8828734 25.856171,24.2123443 25.652389,23.4142247 C25.4486071,22.616105 25.3145401,22.0270167 25.2501879,21.6469597 C25.1911984,21.9781522 25.0785821,22.5210908 24.9123389,23.2757753 C24.7460958,24.0304599 24.3707081,25.5235409 23.7861757,27.7550183 L26.7705082,27.7631624 Z" id="Shape" fill="#AEAEAF"></path>
                    <path d="M47.2827666,33.5780342 L42.3115605,33.5780342 L37.1794739,23.5608181 L37.0909896,23.5608181 C37.2143313,25.1353398 37.2760021,26.3379487 37.2760021,27.1686447 L37.2760021,33.5780342 L33.9136006,33.5780342 L33.9136006,19.3584737 L38.8687187,19.3584737 L43.9766732,29.2372405 L44.0329814,29.2372405 C43.9418158,27.8038828 43.896233,26.6528531 43.896233,25.7841514 L43.896233,19.3584737 L47.2747226,19.3584737 L47.2827666,33.5780342 Z" id="Shape" fill="#AEAEAF"></path>
                    <path d="M58.9305118,33.5780342 L58.2387258,30.9149206 L53.6777649,30.9149206 L52.9698908,33.5780342 L48.803087,33.5780342 L53.38818,19.3014652 L58.4478704,19.3014652 L63.0892717,33.5780342 L58.9305118,33.5780342 Z M57.4504116,27.7631624 L56.8471099,25.425812 C56.7076801,24.8828734 56.5360743,24.2123443 56.3322924,23.4142247 C56.1285105,22.616105 55.9944435,22.0270167 55.9300913,21.6469597 C55.8711018,21.9781522 55.7584854,22.5210908 55.5922423,23.2757753 C55.4259992,24.0304599 55.0506114,25.5235409 54.4660791,27.7550183 L57.4504116,27.7631624 Z" id="Shape" fill="#AEAEAF"></path>
                    <path d="M70.240408,25.2466422 L76.2975573,25.2466422 L76.2975573,32.9102198 C74.5468479,33.4974447 72.7120117,33.7864138 70.8678418,33.765348 C69.0028919,33.8833736 67.1768183,33.1900784 65.8483715,31.8596337 C64.6685815,30.5891575 64.0786865,28.7784575 64.0786865,26.4275336 C63.9613221,24.446137 64.6636741,22.5046598 66.017296,21.0687302 C67.5037596,19.7195383 69.4625037,19.0301443 71.4550555,19.1548718 C72.2953607,19.1506014 73.1338079,19.235216 73.9567466,19.4073382 C74.6602614,19.5508502 75.3475386,19.7664198 76.0079724,20.0507204 L74.809413,23.0640293 C73.7724972,22.5531503 72.6322957,22.2938322 71.4791875,22.30663 C70.5033923,22.2503538 69.556532,22.6530417 68.9131442,23.3979365 C68.2538363,24.2984627 67.9317148,25.4067214 68.0041696,26.5252625 C67.9275022,27.6005922 68.2108744,28.6707177 68.8085719,29.5630037 C69.3873403,30.2727575 70.2660404,30.6600793 71.1735147,30.6054457 C71.6954223,30.6105505 72.2162273,30.5559097 72.7260111,30.4425641 L72.7260111,28.2192308 L70.2162759,28.2192308 L70.240408,25.2466422 Z" id="Shape" fill="#AEAEAF"></path>
                    <polygon id="Shape" fill="#AEAEAF" points="87.4948372 33.5780342 79.1612294 33.5780342 79.1612294 19.3584737 87.4948372 19.3584737 87.4948372 22.4450794 82.9499642 22.4450794 82.9499642 24.6847009 87.1569882 24.6847009 87.1569882 27.7713065 82.9499642 27.7713065 82.9499642 30.4507082 87.4948372 30.4507082"></polygon>
                    <path d="M93.7450429,28.3984005 L93.7450429,33.5698901 L89.9482641,33.5698901 L89.9482641,19.3503297 L94.5494452,19.3503297 C98.3623121,19.3503297 100.271427,20.7511111 100.27679,23.552674 C100.280017,25.1942927 99.3369797,26.6869126 97.8635827,27.3722466 L101.95799,33.5698901 L97.6544381,33.5698901 L94.6781496,28.3984005 L93.7450429,28.3984005 Z M93.7450429,25.5072527 L94.452917,25.5072527 C95.7774994,25.5072527 96.4397906,24.9154497 96.4397906,23.7318437 C96.4397906,22.7545543 95.7909061,22.2659096 94.4931371,22.2659096 L93.7450429,22.2659096 L93.7450429,25.5072527 Z" id="Shape" fill="#AEAEAF"></path>
                    <path d="M13.9965999,12.9002198 L10.2078651,12.9002198 L9.07365784,7.66357753 C9.02003102,7.44640212 8.93422811,7.01205128 8.81624911,6.36052503 C8.6982701,5.70899878 8.61246719,5.16606024 8.55884037,4.7317094 C8.51593892,5.09004884 8.44622405,5.53254375 8.34969578,6.05919414 C8.2531675,6.58584453 8.15663923,7.07177452 8.06011095,7.51698413 C7.96358268,7.96219373 7.56942555,9.75932031 6.87763958,12.9083639 L3.0889048,12.9083639 L0.152836435,0.895848596 L3.21760916,0.895848596 L4.50465283,6.91432234 C4.79423765,8.24452177 4.99533822,9.30325193 5.10795455,10.0905128 C5.17766941,9.54757428 5.30369244,8.79017501 5.48602362,7.81831502 C5.66835481,6.84645503 5.83727929,6.05376475 5.99279707,5.4402442 L7.03852004,0.895848596 L10.0067645,0.895848596 L11.0203114,5.4402442 C11.1919172,6.16778185 11.3688857,7.00933659 11.5512169,7.96490842 C11.7335481,8.92048026 11.8515271,9.63172975 11.9051539,10.0986569 C11.9748688,9.49056573 12.1679253,8.43726496 12.4843236,6.93875458 L13.7954993,0.903992674 L16.8924481,0.903992674 L13.9965999,12.9002198 Z" id="Shape" fill="#6F56A3"></path>
                    <path d="M27.0600931,4.71542125 C27.130864,5.8755042 26.7026303,7.00988801 25.8856657,7.8264591 C24.9520888,8.63065453 23.7466055,9.03650714 22.5232641,8.95848596 L21.6223336,8.95848596 L21.6223336,12.9409402 L18.4047244,12.9409402 L18.4047244,0.895848596 L22.5071761,0.895848596 C23.7148546,0.803538743 24.9147758,1.15642269 25.8856657,1.88942613 C26.680329,2.60225673 27.1123497,3.64181736 27.0600931,4.71542125 L27.0600931,4.71542125 Z M21.6545097,6.27908425 L22.2417233,6.27908425 C22.6630603,6.30130899 23.0761588,6.15507233 23.3920186,5.87188034 C23.68604,5.57267835 23.8409727,5.16129134 23.8183518,4.73985348 C23.8183518,3.93087505 23.3759306,3.52638584 22.491088,3.52638584 L21.6866858,3.52638584 L21.6545097,6.27908425 Z" id="Shape" fill="#6F56A3"></path>
                    <path d="M41.8771832,4.71542125 C41.9479542,5.8755042 41.5197205,7.00988801 40.7027559,7.8264591 C39.772563,8.61092982 38.5806741,9.00442358 37.3725304,8.92590965 L36.4715999,8.92590965 L36.4715999,12.9083639 L33.2539907,12.9083639 L33.2539907,0.895848596 L37.3564424,0.895848596 C38.5641209,0.803538743 39.7640421,1.15642269 40.734932,1.88942613 C41.5176914,2.60843025 41.9375207,3.64711203 41.8771832,4.71542125 L41.8771832,4.71542125 Z M36.4715999,6.27908425 L37.0588135,6.27908425 C37.4801504,6.30130899 37.893249,6.15507233 38.2091088,5.87188034 C38.5031302,5.57267835 38.6580629,5.16129134 38.635442,4.73985348 C38.635442,3.93087505 38.1930208,3.52638584 37.3081782,3.52638584 L36.5037759,3.52638584 L36.4715999,6.27908425 Z" id="Shape" fill="#6F56A3"></path>
                    <path d="M46.9770938,8.53499389 L46.9770938,12.9083639 L43.7594846,12.9083639 L43.7594846,0.895848596 L47.6447477,0.895848596 C50.8623568,0.895848596 52.4711614,2.07945462 52.4711614,4.44666667 C52.4910005,5.83819203 51.7042915,7.11258309 50.4601557,7.70429792 L53.9190855,12.9409402 L50.2831872,12.9409402 L47.765408,8.56757021 L46.9770938,8.53499389 Z M46.9770938,6.09177045 L47.5803955,6.09177045 C48.701196,6.09177045 49.2615963,5.5895523 49.2615963,4.585116 C49.2615963,3.75984941 48.7253281,3.34721612 47.6527917,3.34721612 L47.0173139,3.34721612 L46.9770938,6.09177045 Z" id="Shape" fill="#6F56A3"></path>
                    <path d="M66.1138243,6.88174603 C66.2265805,8.55270877 65.6994157,10.2034552 64.6417681,11.4912943 C62.1609549,13.6030813 58.5396088,13.6030813 56.0587956,11.4912943 C54.0804074,8.75366075 54.0804074,5.03426355 56.0587956,2.29663004 C58.5495258,0.195563669 62.1671259,0.195563669 64.6578561,2.29663004 C65.7038102,3.58062175 66.2247621,5.22119657 66.1138243,6.88174603 Z M57.949141,6.88174603 C57.949141,9.205523 58.7535433,10.3674115 60.3623479,10.3674115 C61.0634504,10.4267898 61.7459753,10.1196723 62.172253,9.55300366 C62.9608998,7.87877845 62.9608998,5.93357808 62.172253,4.25935287 C61.7642644,3.68387046 61.0928922,3.36092509 60.394524,3.40422466 C58.7428179,3.37707774 57.9169649,4.53625153 57.9169649,6.88174603 L57.949141,6.88174603 Z" id="Shape" fill="#6F56A3"></path>
                    <path d="M67.3284717,16.670928 C66.7689889,16.6744003 66.210754,16.6170634 65.663359,16.4999023 L65.663359,13.9752381 L66.2183966,14.0892552 C66.4274899,14.1327492 66.6404135,14.1545792 66.8538744,14.1544078 C67.2877256,14.1977243 67.7139906,14.0171395 67.9880816,13.6739072 C68.2515907,13.1746149 68.3688018,12.6095241 68.3259306,12.0450916 L68.3259306,0.895848596 L71.5435397,0.895848596 L71.5435397,11.7274725 C71.6360331,13.0448891 71.262499,14.3526425 70.4897727,15.4167399 C69.6776513,16.2974384 68.5153751,16.7585501 67.3284717,16.670928 L67.3284717,16.670928 Z" id="Shape" fill="#6F56A3"></path>
                    <polygon id="Shape" fill="#6F56A3" points="81.1481031 12.9002198 74.101539 12.9002198 74.101539 0.895848596 81.1481031 0.895848596 81.1481031 3.5019536 77.3111042 3.5019536 77.3111042 5.39137973 80.8665623 5.39137973 80.8665623 7.99748474 77.3111042 7.99748474 77.3111042 10.2615385 81.1481031 10.2615385"></polygon>
                    <path d="M88.484252,3.37979243 C87.7647644,3.35674284 87.0863831,3.71871522 86.6984789,4.33264957 C86.2302292,5.11915704 86.0060414,6.02989946 86.0549571,6.94689866 C86.0549571,9.25981685 86.9237115,10.4162759 88.6612205,10.4162759 C89.1785202,10.4185272 89.6933836,10.3444524 90.1895848,10.1963858 C90.6944906,10.0434238 91.1912079,9.86401235 91.6777291,9.65887668 L91.6777291,12.403431 C90.6157699,12.8629031 89.470038,13.0904596 88.3153275,13.0712454 C86.7812903,13.1731518 85.2789414,12.5968219 84.1967878,11.4912943 C83.1653708,10.2099946 82.6535325,8.57968717 82.7649517,6.9306105 C82.7454683,5.80536338 82.9821795,4.69068623 83.4567377,3.67297924 C83.8907248,2.76162853 84.5859271,2.00385506 85.4516553,1.49851038 C86.3888114,0.975301183 87.4465674,0.713897271 88.5164281,0.741111111 C89.7867008,0.729240267 91.0432573,1.00761796 92.1925465,1.55551893 L91.2111757,4.11275946 C90.7857222,3.90815813 90.3477681,3.73134154 89.9,3.58339438 C89.4414765,3.44111377 88.9637727,3.37241409 88.484252,3.37979243 L88.484252,3.37979243 Z" id="Shape" fill="#6F56A3"></path>
                    <polygon id="Shape" fill="#6F56A3" points="99.2471546 12.9002198 96.0295455 12.9002198 96.0295455 3.54267399 93.1336972 3.54267399 93.1336972 0.887704518 102.159091 0.887704518 102.159091 3.54267399 99.2712867 3.54267399"></polygon>
                </g>
            </g>
        </g>
    </g>
</svg>