<?xml version="1.0" encoding="utf-8"?>
<!-- Generator: Adobe Illustrator 18.0.0, SVG Export Plug-In . SVG Version: 6.00 Build 0)  -->
<!DOCTYPE svg PUBLIC "-//W3C//DTD SVG 1.1//EN" "http://www.w3.org/Graphics/SVG/1.1/DTD/svg11.dtd">
<svg version="1.1" id="Layer_1" xmlns="http://www.w3.org/2000/svg" xmlns:xlink="http://www.w3.org/1999/xlink" x="0px" y="0px"
	 width="135px" height="100px" viewBox="0 0 135 100" style="enable-background:new 0 0 135 100;" xml:space="preserve">
<style type="text/css">
	.st0{opacity:5.000000e-02;}
	.st1{fill-rule:evenodd;clip-rule:evenodd;fill:url(#SVGID_1_);}
	.st2{opacity:0.1;fill-rule:evenodd;clip-rule:evenodd;fill:url(#SVGID_2_);}
	.st3{fill:url(#SVGID_3_);}
	.st4{fill:url(#SVGID_4_);}
	.st5{fill:url(#SVGID_5_);}
	.st6{fill:url(#SVGID_6_);}
	.st7{fill:url(#SVGID_7_);}
</style>
<g class="st0">
	<linearGradient id="SVGID_1_" gradientUnits="userSpaceOnUse" x1="1.113" y1="50.102" x2="133.7424" y2="50.102">
		<stop  offset="0" style="stop-color:#273A9B"/>
		<stop  offset="0.5604" style="stop-color:#202F65"/>
		<stop  offset="1" style="stop-color:#021E2F"/>
	</linearGradient>
	<path class="st1" d="M54.5,5c27.6,10.9,79.2-10,79.2,19.7s-49.3,75-79,75S1.1,75.7,1.1,46S15.4-10.4,54.5,5z"/>
</g>
<linearGradient id="SVGID_2_" gradientUnits="userSpaceOnUse" x1="1.7006" y1="44.2934" x2="134.33" y2="44.2934">
	<stop  offset="0" style="stop-color:#F3C57A"/>
	<stop  offset="0.4937" style="stop-color:#F39369"/>
	<stop  offset="1" style="stop-color:#E94867"/>
</linearGradient>
<path class="st2" d="M80.9,84.8c-27.6-9.8-79.2,9-79.2-17.7S51-0.3,80.7-0.3s53.7,21.6,53.7,48.3S120,98.7,80.9,84.8z"/>
<g>
	
		<linearGradient id="SVGID_3_" gradientUnits="userSpaceOnUse" x1="766.5001" y1="264.8572" x2="766.5001" y2="440.8172" gradientTransform="matrix(-1 0 0 -1 834 333.9688)">
		<stop  offset="0" style="stop-color:#FFFFFF"/>
		<stop  offset="0.516" style="stop-color:#CCE2E6"/>
		<stop  offset="1" style="stop-color:#8FA1BB"/>
	</linearGradient>
	<path class="st3" d="M37.4,73.6C13.3,35.8,53.3-4.3,91.1,19.8c2.6,1.7,4.9,3.9,6.5,6.5c24.1,37.8-15.9,77.8-53.7,53.7
		C41.3,78.4,39.1,76.2,37.4,73.6z"/>
	
		<linearGradient id="SVGID_4_" gradientUnits="userSpaceOnUse" x1="766.5" y1="403.5508" x2="766.5" y2="233.4793" gradientTransform="matrix(-1 0 0 -1 834 333.9688)">
		<stop  offset="0" style="stop-color:#F3C57A"/>
		<stop  offset="0.4937" style="stop-color:#F39369"/>
		<stop  offset="1" style="stop-color:#E94867"/>
	</linearGradient>
	<path class="st4" d="M69.6,87.4C89,86.3,104.7,70.1,105,50.6c0.1-8.6-2.6-16.6-7.4-23c-6.7-9-20.9-4.2-20.9,7v14.1
		c0,0.7,0.6,1.3,1.3,1.3h4.7c1.5,0,2.3,1.8,1.3,2.9L68.6,70.8c-0.6,0.7-1.6,0.7-2.2,0L51,52.9c-1-1.1-0.2-2.9,1.3-2.9H57
		c0.7,0,1.3-0.6,1.3-1.3V34.6c0-11.2-14.2-15.9-20.9-7C32.7,33.9,30,41.6,30,50C30,71.4,47.9,88.6,69.6,87.4z"/>
	<g>
		
			<linearGradient id="SVGID_5_" gradientUnits="userSpaceOnUse" x1="789.8477" y1="465.5992" x2="789.8477" y2="238.7458" gradientTransform="matrix(-1 0 0 -1 834 333.9688)">
			<stop  offset="0" style="stop-color:#F3C57A"/>
			<stop  offset="0.4937" style="stop-color:#F39369"/>
			<stop  offset="1" style="stop-color:#E94867"/>
		</linearGradient>
		<path class="st5" d="M37.4,33.1c6.7-9,20.9-4.2,20.9,7v-5.4c0-11.2-14.2-15.9-20.9-7C32.7,33.9,30,41.6,30,50c0,0.9,0,1.8,0.1,2.7
			C30.6,45.4,33.3,38.6,37.4,33.1z"/>
		
			<linearGradient id="SVGID_6_" gradientUnits="userSpaceOnUse" x1="743.1523" y1="465.5995" x2="743.1523" y2="238.7455" gradientTransform="matrix(-1 0 0 -1 834 333.9688)">
			<stop  offset="0" style="stop-color:#F3C57A"/>
			<stop  offset="0.4937" style="stop-color:#F39369"/>
			<stop  offset="1" style="stop-color:#E94867"/>
		</linearGradient>
		<path class="st6" d="M97.6,33.1c4.1,5.5,6.7,12.2,7.3,19.4c0-0.6,0.1-1.2,0.1-1.9c0.1-8.6-2.6-16.6-7.4-23c-6.7-9-20.9-4.2-20.9,7
			V40C76.7,28.9,90.9,24.1,97.6,33.1z"/>
		
			<linearGradient id="SVGID_7_" gradientUnits="userSpaceOnUse" x1="766.5001" y1="465.5989" x2="766.5001" y2="238.7452" gradientTransform="matrix(-1 0 0 -1 834 333.9688)">
			<stop  offset="0" style="stop-color:#F3C57A"/>
			<stop  offset="0.4937" style="stop-color:#F39369"/>
			<stop  offset="1" style="stop-color:#E94867"/>
		</linearGradient>
		<path class="st7" d="M52.3,55.5c-1.5,0-2.3,1.8-1.3,2.9l15.4,17.9c0.6,0.7,1.6,0.7,2.2,0L84,58.4c1-1.1,0.2-2.9-1.3-2.9h-0.9
			L68.6,70.8c-0.6,0.7-1.6,0.7-2.2,0L53.2,55.5H52.3z"/>
	</g>
</g>
</svg>
