<?xml version="1.0" encoding="utf-8"?>
<!-- Generator: Adobe Illustrator 18.0.0, SVG Export Plug-In . SVG Version: 6.00 Build 0)  -->
<!DOCTYPE svg PUBLIC "-//W3C//DTD SVG 1.1//EN" "http://www.w3.org/Graphics/SVG/1.1/DTD/svg11.dtd">
<svg version="1.1" id="Layer_1" xmlns="http://www.w3.org/2000/svg" xmlns:xlink="http://www.w3.org/1999/xlink" x="0px" y="0px"
	 width="135px" height="100px" viewBox="0 0 135 100" style="enable-background:new 0 0 135 100;" xml:space="preserve">
<style type="text/css">
	.st0{opacity:5.000000e-02;}
	.st1{fill-rule:evenodd;clip-rule:evenodd;fill:url(#SVGID_1_);}
	.st2{opacity:0.1;fill-rule:evenodd;clip-rule:evenodd;fill:url(#SVGID_2_);}
	.st3{fill:url(#SVGID_3_);}
	.st4{fill:url(#SVGID_4_);}
	.st5{fill:url(#SVGID_5_);}
	.st6{fill:url(#SVGID_6_);}
	.st7{fill:url(#SVGID_7_);}
	.st8{fill:url(#SVGID_8_);}
</style>
<g class="st0">
	<linearGradient id="SVGID_1_" gradientUnits="userSpaceOnUse" x1="1.113" y1="50.102" x2="133.7424" y2="50.102">
		<stop  offset="0" style="stop-color:#273A9B"/>
		<stop  offset="0.5604" style="stop-color:#202F65"/>
		<stop  offset="1" style="stop-color:#021E2F"/>
	</linearGradient>
	<path class="st1" d="M54.5,5c27.6,10.9,79.2-10,79.2,19.7s-49.3,75-79,75S1.1,75.7,1.1,46S15.4-10.4,54.5,5z"/>
</g>
<linearGradient id="SVGID_2_" gradientUnits="userSpaceOnUse" x1="1.7006" y1="44.2934" x2="134.33" y2="44.2934">
	<stop  offset="0" style="stop-color:#F3C57A"/>
	<stop  offset="0.4937" style="stop-color:#F39369"/>
	<stop  offset="1" style="stop-color:#E94867"/>
</linearGradient>
<path class="st2" d="M80.9,84.8c-27.6-9.8-79.2,9-79.2-17.7S51-0.3,80.7-0.3s53.7,21.6,53.7,48.3S120,98.7,80.9,84.8z"/>
<g>
	
		<linearGradient id="SVGID_3_" gradientUnits="userSpaceOnUse" x1="62.1218" y1="95.8333" x2="62.1218" y2="-25.1318" gradientTransform="matrix(-1 0 0 1 135 0)">
		<stop  offset="3.645830e-03" style="stop-color:#27E9DE"/>
		<stop  offset="0.5243" style="stop-color:#03A4EC"/>
		<stop  offset="1" style="stop-color:#2547A8"/>
	</linearGradient>
	<path class="st3" d="M45.5,62c0.3-1.9,0.1-3.8-0.9-5.5c-3-5.3-4.5-11.7-3.6-18.4C42.7,25,53.2,14.4,66.3,12.8
		c13.3-1.7,25.2,5.5,30.4,16.5l7.9,16.9c0.9,1.8-0.5,3.9-2.5,3.9h-0.8c-1,0-1.7,0.8-1.7,1.7v7.6c0,6.7-5.4,12.1-12.1,12.1h0
		c-4,0-7.4,2.9-7.9,6.9L79,82.2c-0.4,3-3,5.3-6.1,5.3H48.2c-3.9,0-6.8-3.5-6.1-7.3L45.5,62z"/>
	
		<linearGradient id="SVGID_4_" gradientUnits="userSpaceOnUse" x1="74.4843" y1="90.7933" x2="74.4843" y2="36.6969" gradientTransform="matrix(-1 0 0 1 135 0)">
		<stop  offset="3.645830e-03" style="stop-color:#27E9DE"/>
		<stop  offset="0.5243" style="stop-color:#03A4EC"/>
		<stop  offset="1" style="stop-color:#2547A8"/>
	</linearGradient>
	<path class="st4" d="M41.9,49.9h37.3v31.4v0c-0.5,3.6-3.6,6.2-7.2,6.2H48.2c-3.9,0-6.8-3.5-6.1-7.3l3.3-18.1c0.4-1.9,0.1-4-0.9-5.7
		C43.4,54.4,42.5,52.2,41.9,49.9z"/>
	<g>
		<g>
			
				<linearGradient id="SVGID_5_" gradientUnits="userSpaceOnUse" x1="91.7217" y1="37.4858" x2="26.3197" y2="48.2002" gradientTransform="matrix(-1 0 0 1 135 0)">
				<stop  offset="0" style="stop-color:#273A9B"/>
				<stop  offset="0.5604" style="stop-color:#202F65"/>
				<stop  offset="1" style="stop-color:#021E2F"/>
			</linearGradient>
			<path class="st5" d="M36.6,39.3L36.6,39.3c0-1.6-0.6-3.2-1.8-4.3l-4-4c-0.9-0.9-1.1-2.4-0.4-3.5l1.9-3.3c0.7-1.1,2-1.7,3.2-1.4
				l5.5,1.4c1.6,0.4,3.2,0.2,4.6-0.7l0,0c1.3-0.8,2.3-2.1,2.7-3.5l1.5-5.5c0.3-1.3,1.5-2.1,2.8-2.1h3.8c1.3,0,2.4,0.9,2.8,2.1
				l1.5,5.5c0.4,1.5,1.4,2.7,2.7,3.5l0,0c1.4,0.8,3.1,1.1,4.6,0.7l5.5-1.4c1.3-0.3,2.6,0.2,3.2,1.4l1.9,3.3c0.7,1.1,0.5,2.6-0.4,3.5
				l-4.2,4.2c-1.1,1.1-1.6,2.6-1.6,4.1c0,0,0,0,0,0c0,0,0,0,0,0c0,1.5,0.5,3,1.6,4.1l4.2,4.2c0.9,0.9,1.1,2.4,0.4,3.5l-1.9,3.3
				c-0.7,1.1-2,1.7-3.2,1.4l-5.8-1.5c-1.5-0.4-3-0.1-4.3,0.7c0,0-0.1,0.1-0.1,0.1c-1.3,0.7-2.2,1.9-2.6,3.3l-1.6,5.8
				c-0.3,1.3-1.5,2.1-2.8,2.1h-3.8c-1.3,0-2.4-0.9-2.8-2.1l-1.5-5.6C48,57,47,55.8,45.7,55l-0.3-0.2c-1.2-0.7-2.7-1-4.1-0.6
				l-5.8,1.5c-1.3,0.3-2.6-0.2-3.2-1.4l-1.9-3.3c-0.7-1.1-0.5-2.6,0.4-3.5l4-4C35.9,42.5,36.6,41,36.6,39.3L36.6,39.3z"/>
			
				<linearGradient id="SVGID_6_" gradientUnits="userSpaceOnUse" x1="75.0273" y1="92.2232" x2="75.0273" y2="-9.6187" gradientTransform="matrix(-1 0 0 1 135 0)">
				<stop  offset="0" style="stop-color:#273A9B"/>
				<stop  offset="0.5604" style="stop-color:#202F65"/>
				<stop  offset="1" style="stop-color:#021E2F"/>
			</linearGradient>
			<path class="st6" d="M73.7,55.7l-5.8-1.5c-1.5-0.4-3-0.1-4.3,0.7c0,0-0.1,0-0.1,0.1c-1.3,0.7-2.2,1.9-2.6,3.3l-1.6,5.8
				c-0.3,1.3-1.5,2.1-2.8,2.1h-3.8c-1.3,0-2.4-0.9-2.8-2.1l-1.5-5.6C48,57,47,55.8,45.7,55l-0.3-0.2c-0.6-0.4-1.3-0.6-2-0.7
				c-2.2-4.9-3.2-10.5-2.3-16.4c1.5-10.5,8.7-19.2,18.2-23l1.5,5.5c0.4,1.5,1.4,2.7,2.7,3.5l0,0c1.4,0.8,3.1,1.1,4.6,0.7l5.5-1.4
				c1.3-0.3,2.6,0.2,3.2,1.4l1.9,3.3c0.7,1.1,0.5,2.6-0.4,3.5l-4.2,4.2c-1.1,1.1-1.6,2.6-1.6,4.1c0,0,0,0,0,0c0,0,0,0,0,0
				c0,1.5,0.5,3,1.6,4.1l4.2,4.2c0.9,0.9,1.1,2.4,0.4,3.5l-1.9,3.3C76.2,55.5,74.9,56.1,73.7,55.7z"/>
			
				<linearGradient id="SVGID_7_" gradientUnits="userSpaceOnUse" x1="80.4059" y1="68.5294" x2="80.4059" y2="29.9262" gradientTransform="matrix(-1 0 0 1 135 0)">
				<stop  offset="0" style="stop-color:#273A9B"/>
				<stop  offset="0.5604" style="stop-color:#202F65"/>
				<stop  offset="1" style="stop-color:#021E2F"/>
			</linearGradient>
			<path class="st7" d="M61.1,57.7c-0.1,0.2-0.2,0.3-0.3,0.6l-1.6,5.8c-0.3,1.3-1.5,2.1-2.8,2.1h-3.8c-1.3,0-2.4-0.9-2.8-2.1
				l-1.5-5.6c-0.1-0.2-0.2-0.4-0.3-0.7V39.3h13.1V57.7z"/>
		</g>
		
			<linearGradient id="SVGID_8_" gradientUnits="userSpaceOnUse" x1="80.4059" y1="75.6695" x2="80.4059" y2="5.989" gradientTransform="matrix(-1 0 0 1 135 0)">
			<stop  offset="0" style="stop-color:#F3C57A"/>
			<stop  offset="0.4937" style="stop-color:#F39369"/>
			<stop  offset="1" style="stop-color:#E94867"/>
		</linearGradient>
		<path class="st8" d="M49.4,35.1c-4.4,6.7,2.8,13.8,9.5,9.5c0.4-0.3,0.7-0.6,1-1c4.4-6.7-2.8-13.8-9.5-9.5
			C50,34.4,49.6,34.7,49.4,35.1z"/>
	</g>
</g>
</svg>
