<?xml version="1.0" encoding="utf-8"?>
<!-- Generator: Adobe Illustrator 18.0.0, SVG Export Plug-In . SVG Version: 6.00 Build 0)  -->
<!DOCTYPE svg PUBLIC "-//W3C//DTD SVG 1.1//EN" "http://www.w3.org/Graphics/SVG/1.1/DTD/svg11.dtd">
<svg version="1.1" id="Layer_1" xmlns="http://www.w3.org/2000/svg" xmlns:xlink="http://www.w3.org/1999/xlink" x="0px" y="0px"
	 width="135px" height="100px" viewBox="0 0 135 100" style="enable-background:new 0 0 135 100;" xml:space="preserve">
<style type="text/css">
	.st0{opacity:5.000000e-02;}
	.st1{fill-rule:evenodd;clip-rule:evenodd;fill:url(#SVGID_1_);}
	.st2{opacity:0.1;fill-rule:evenodd;clip-rule:evenodd;fill:url(#SVGID_2_);}
	.st3{fill:url(#SVGID_3_);}
	.st4{fill:url(#SVGID_4_);}
	.st5{fill:#FFFFFF;}
</style>
<g class="st0">
	<linearGradient id="SVGID_1_" gradientUnits="userSpaceOnUse" x1="1.113" y1="50.102" x2="133.7424" y2="50.102">
		<stop  offset="0" style="stop-color:#273A9B"/>
		<stop  offset="0.5604" style="stop-color:#202F65"/>
		<stop  offset="1" style="stop-color:#021E2F"/>
	</linearGradient>
	<path class="st1" d="M54.5,5c27.6,10.9,79.2-10,79.2,19.7s-49.3,75-79,75S1.1,75.7,1.1,46S15.4-10.4,54.5,5z"/>
</g>
<linearGradient id="SVGID_2_" gradientUnits="userSpaceOnUse" x1="1.7006" y1="44.2934" x2="134.33" y2="44.2934">
	<stop  offset="0" style="stop-color:#F3C57A"/>
	<stop  offset="0.4937" style="stop-color:#F39369"/>
	<stop  offset="1" style="stop-color:#E94867"/>
</linearGradient>
<path class="st2" d="M80.9,84.8c-27.6-9.8-79.2,9-79.2-17.7S51-0.3,80.7-0.3s53.7,21.6,53.7,48.3S120,98.7,80.9,84.8z"/>
<g>
	<linearGradient id="SVGID_3_" gradientUnits="userSpaceOnUse" x1="41.4486" y1="49.7558" x2="91.4483" y2="49.7558">
		<stop  offset="0" style="stop-color:#08CDDE"/>
		<stop  offset="1" style="stop-color:#077CDD"/>
	</linearGradient>
	<path class="st3" d="M65.1,22.4C52.4,23.1,42,33.5,41.5,46.3c-0.3,6.2,1.7,11.9,5.2,16.4l-3.9,12.2c-0.5,1.5,1.1,2.8,2.4,2
		l11.6-6.5c3.5,1.4,7.3,2.1,11.3,1.8c12.5-0.9,22.6-11.1,23.2-23.7C92.1,33.8,80,21.7,65.1,22.4z"/>
	<linearGradient id="SVGID_4_" gradientUnits="userSpaceOnUse" x1="24.1474" y1="49.1767" x2="110.7081" y2="49.1767">
		<stop  offset="0" style="stop-color:#F5A06A"/>
		<stop  offset="1" style="stop-color:#F56565"/>
	</linearGradient>
	<path class="st4" d="M110.7,47.4c0-6.7-4.2-12.3-10.1-14.5C95,19.6,81.8,10.2,66.4,10.2c-15.8,0-29.4,10-34.7,24
		c-4.5,2.8-7.6,7.8-7.6,13.5c0,6,3.3,11.2,8.2,13.9c1.4,0.8,3-0.6,2.5-2.1c-1.3-3.7-2-7.7-2-11.8c0-5.5,1.2-10.7,3.4-15.3
		c5.5-11.1,17-18.8,30.2-18.8c18.6,0,33.7,15.1,33.7,33.7c0,17.1-12.8,31.3-29.4,33.4c-0.8-1.9-2.7-3.3-4.9-3.3
		c-2.9,0-5.3,2.4-5.3,5.3c0,2.9,2.4,5.3,5.3,5.3c2.4,0,4.5-1.6,5.1-3.9c13.4-1.6,24.5-10.4,29.6-22.3
		C106.5,59.7,110.7,54,110.7,47.4z"/>
	<path class="st5" d="M61.7,45.4l1.6,1.6c0.4,0.4,1.2,0.4,1.6,0l5.8-5.8c0.4-0.4,1.2-0.4,1.6,0l2,2c0.4,0.4,0.4,1.2,0,1.6l-9,9
		c-0.4,0.4-1.2,0.4-1.6,0l-5.3-5.3c-0.5-0.5-0.4-1.2,0.1-1.7l1.7-1.5C60.6,44.9,61.2,44.9,61.7,45.4z"/>
</g>
</svg>
